<svg xmlns="http://www.w3.org/2000/svg" xmlns:xlink="http://www.w3.org/1999/xlink" viewBox="0 0 512 512"><defs><style>.cls-1{fill:url(#linear-gradient);}.cls-2{fill:#ff7926;}.cls-3{fill:url(#linear-gradient-2);}.cls-4{fill:url(#linear-gradient-3);}.cls-5{fill:url(#linear-gradient-4);}.cls-6{fill:url(#linear-gradient-5);}.cls-7{fill:url(#linear-gradient-6);}.cls-8{fill:url(#linear-gradient-7);}.cls-9{fill:url(#linear-gradient-8);}.cls-10{fill:url(#linear-gradient-9);}.cls-11{fill:url(#linear-gradient-10);}</style><linearGradient id="linear-gradient" x1="67.42" y1="454.61" x2="444.58" y2="454.61" gradientUnits="userSpaceOnUse"><stop offset="0.32" stop-color="#ff7926"/><stop offset="0.47" stop-color="#ff8328"/><stop offset="0.71" stop-color="#ff9e2d"/><stop offset="1" stop-color="#ffc734"/></linearGradient><linearGradient id="linear-gradient-2" x1="255.6" y1="274.37" x2="405.12" y2="175.06" xlink:href="#linear-gradient"/><linearGradient id="linear-gradient-3" x1="245.5" y1="149" x2="353.81" y2="86.2" xlink:href="#linear-gradient"/><linearGradient id="linear-gradient-4" x1="101.2" y1="391.06" x2="387.93" y2="122.97" xlink:href="#linear-gradient"/><linearGradient id="linear-gradient-5" x1="102.73" y1="225.86" x2="229.5" y2="225.86" gradientUnits="userSpaceOnUse"><stop offset="0.64" stop-color="#ff7926" stop-opacity="0"/><stop offset="0.73" stop-color="#ec7125" stop-opacity="0.09"/><stop offset="0.9" stop-color="#ba5c21" stop-opacity="0.34"/><stop offset="1" stop-color="#994e1f" stop-opacity="0.5"/></linearGradient><linearGradient id="linear-gradient-6" x1="282.24" y1="226.86" x2="409.25" y2="226.86" gradientUnits="userSpaceOnUse"><stop offset="0" stop-color="#994e1f" stop-opacity="0.3"/><stop offset="0.31" stop-color="#ff7926" stop-opacity="0"/></linearGradient><linearGradient id="linear-gradient-7" x1="289.66" y1="116.38" x2="356.55" y2="116.38" gradientUnits="userSpaceOnUse"><stop offset="0" stop-color="#994e1f" stop-opacity="0.3"/><stop offset="0.12" stop-color="#d16523" stop-opacity="0.14"/><stop offset="0.24" stop-color="#ff7926" stop-opacity="0"/></linearGradient><linearGradient id="linear-gradient-8" x1="164.44" y1="116.32" x2="231.09" y2="116.32" gradientUnits="userSpaceOnUse"><stop offset="0.65" stop-color="#ff7926" stop-opacity="0"/><stop offset="0.72" stop-color="#e56e24" stop-opacity="0.13"/><stop offset="0.83" stop-color="#bb5c21" stop-opacity="0.33"/><stop offset="0.93" stop-color="#a25220" stop-opacity="0.46"/><stop offset="1" stop-color="#994e1f" stop-opacity="0.5"/></linearGradient><linearGradient id="linear-gradient-9" x1="256" y1="463.1" x2="256" y2="-3.78" gradientUnits="userSpaceOnUse"><stop offset="0" stop-color="#994e1f" stop-opacity="0.8"/><stop offset="0.01" stop-color="#994e1f" stop-opacity="0.77"/><stop offset="0.02" stop-color="#994e1f" stop-opacity="0.68"/><stop offset="0.02" stop-color="#9a4f1f" stop-opacity="0.53"/><stop offset="0.03" stop-color="#9a4f1f" stop-opacity="0.4"/><stop offset="0.1" stop-color="#a25220" stop-opacity="0.37"/><stop offset="0.19" stop-color="#ba5c21" stop-opacity="0.27"/><stop offset="0.29" stop-color="#e26d24" stop-opacity="0.11"/><stop offset="0.34" stop-color="#ff7926" stop-opacity="0"/></linearGradient><linearGradient id="linear-gradient-10" x1="256" y1="506.55" x2="256" y2="284.66" gradientUnits="userSpaceOnUse"><stop offset="0" stop-color="#994e1f" stop-opacity="0.4"/><stop offset="0.37" stop-color="#ff7926" stop-opacity="0"/></linearGradient></defs><g id="artwork"><path class="cls-1" d="M256,506c-58.49,0-116-17.62-175.87-53.86A26.37,26.37,0,1,1,107.45,407c51.37,31.11,100,46.24,148.55,46.24,49,0,97.6-15,148.57-45.8a26.36,26.36,0,0,1,27.28,45.12C372.42,488.53,314.9,506,256,506Z"/><path class="cls-2" d="M255.84,168.84a26.24,26.24,0,0,1-13-3.46l-72.47-41.26a26.37,26.37,0,1,1,26.09-45.83l72.46,41.26a26.37,26.37,0,0,1-13.07,49.29Z"/><path class="cls-3" d="M256.12,310.89a26.36,26.36,0,0,1-26.37-26.37c0-54.22,100.39-99.24,143.55-116.08a26.37,26.37,0,0,1,19.17,49.13c-52.6,20.56-105.78,53.23-110,67.52A26.37,26.37,0,0,1,256.12,310.89Z"/><path class="cls-2" d="M255.87,310.89a26.37,26.37,0,0,1-26.36-25.8c-4.23-14.34-57.4-47-110-67.52a26.37,26.37,0,1,1,19.17-49.13c43.16,16.84,143.55,61.86,143.55,116.08A26.37,26.37,0,0,1,255.87,310.89Z"/><path class="cls-4" d="M256.14,168.84a26.38,26.38,0,0,1-13.07-49.29l72.47-41.26a26.37,26.37,0,0,1,26.09,45.83l-72.47,41.26A26.27,26.27,0,0,1,256.14,168.84Z"/><path class="cls-5" d="M451.35,294.64A26.38,26.38,0,0,0,419,276.09c-4.11,1.11-78.75,21.75-136.76,61.88V32.37a26.37,26.37,0,0,0-52.74,0V337.81c-32.72-22.58-70.66-39-98.27-49.19-21.32-7.87-36.45-12.05-38.24-12.53A26.37,26.37,0,0,0,79.17,327c21.16,5.76,66.07,25.09,106.6,45.23,45.5,22.61,70.23,62.65,70.23,62.65s23.2-34.78,67.43-60.95c39.74-23.52,87.7-41,109.36-46.92A26.38,26.38,0,0,0,451.35,294.64Z"/><path class="cls-6" d="M119.52,217.57c52.57,20.51,105.73,53.17,110,67.51V214.43c-31.08-21.09-68.54-37.3-90.81-46a26.37,26.37,0,1,0-19.17,49.13Z"/><path class="cls-7" d="M282.24,287.1c.06-.68.22-1.32.24-2,4.21-14.29,57.39-47,110-67.52a26.37,26.37,0,0,0-19.17-49.13c-22.33,8.71-59.94,25-91.06,46.16Z"/><path class="cls-8" d="M282.24,157.94l59.39-33.82a26.37,26.37,0,0,0-26.09-45.83l-33.3,19Z"/><path class="cls-9" d="M170.36,124.12,229.5,157.8V97.11L196.45,78.29a26.37,26.37,0,1,0-26.09,45.83Z"/><path class="cls-10" d="M451.35,294.64A26.38,26.38,0,0,0,419,276.09c-4.11,1.11-78.75,21.75-136.76,61.88V32.37a26.37,26.37,0,0,0-52.74,0V337.81c-32.72-22.58-70.66-39-98.27-49.19-21.32-7.87-36.45-12.05-38.24-12.53A26.37,26.37,0,0,0,79.17,327c21.16,5.76,66.07,25.09,106.6,45.23,45.5,22.61,70.23,62.65,70.23,62.65s23.2-34.78,67.43-60.95c39.74-23.52,87.7-41,109.36-46.92A26.38,26.38,0,0,0,451.35,294.64Z"/><path class="cls-11" d="M256,506c-58.49,0-116-17.62-175.87-53.86A26.37,26.37,0,1,1,107.45,407c51.37,31.11,100,46.24,148.55,46.24,49,0,97.6-15,148.57-45.8a26.36,26.36,0,0,1,27.28,45.12C372.42,488.53,314.9,506,256,506Z"/></g></svg>