<svg xmlns="http://www.w3.org/2000/svg" xmlns:xlink="http://www.w3.org/1999/xlink" viewBox="0 0 375.66 90"><defs><style>.cls-1{fill:url(#linear-gradient);}.cls-2{fill:url(#linear-gradient-2);}.cls-3{fill:#ff7926;}.cls-4{fill:url(#linear-gradient-3);}.cls-5{fill:url(#linear-gradient-4);}.cls-6{fill:url(#linear-gradient-5);}</style><linearGradient id="linear-gradient" x1="59.5" y1="96.78" x2="210.98" y2="-5.57" gradientUnits="userSpaceOnUse"><stop offset="0.32" stop-color="#ff7926"/><stop offset="0.7" stop-color="#ff8d29"/><stop offset="0.97" stop-color="#ff972a"/></linearGradient><linearGradient id="linear-gradient-2" x1="306.38" y1="80.75" x2="374.27" y2="80.75" gradientUnits="userSpaceOnUse"><stop offset="0.32" stop-color="#ff7926"/><stop offset="0.47" stop-color="#ff8328"/><stop offset="0.71" stop-color="#ff9e2d"/><stop offset="1" stop-color="#ffc734"/></linearGradient><linearGradient id="linear-gradient-3" x1="340.26" y1="48.31" x2="367.17" y2="30.43" xlink:href="#linear-gradient-2"/><linearGradient id="linear-gradient-4" x1="338.44" y1="25.74" x2="357.94" y2="14.44" xlink:href="#linear-gradient-2"/><linearGradient id="linear-gradient-5" x1="312.47" y1="69.31" x2="364.08" y2="21.05" xlink:href="#linear-gradient-2"/></defs><g id="Layer_2" data-name="Layer 2"><g id="artwork"><path class="cls-1" d="M110.91,50.45a5.46,5.46,0,0,1-5.42,5.46H72c2.2,5,7.39,8.18,13.42,8.18H99A10.67,10.67,0,0,1,88.3,75H85.45C71.57,75,60.24,64.71,60,50.9a25.46,25.46,0,1,1,50.91-.45Zm-12-6a14.52,14.52,0,0,0-26.93,0Zm132,3.77V74H241.6V48.22c0-7.13,5.76-12.5,13.4-12.5V25C241.48,25,230.89,35.2,230.89,48.22Zm-92.17,3.56V15H128V51.78C128,64.8,138.59,75,152.11,75V64.28C144.48,64.28,138.72,58.91,138.72,51.78Zm76.19-1.33a5.46,5.46,0,0,1-5.42,5.46H176c2.2,5,7.39,8.18,13.42,8.18H203A10.67,10.67,0,0,1,192.3,75h-2.85C175.57,75,164.24,64.71,164,50.9a25.46,25.46,0,1,1,50.91-.45Zm-11.74-4.91a14.52,14.52,0,0,0-26.93,0Zm-160.4,22L37.6,62.46a3.82,3.82,0,0,0-4.76-.52A14.12,14.12,0,0,1,25,64.28a14.28,14.28,0,1,1,8.55-25.7,3.87,3.87,0,0,0,4.85-.15l5.5-4.77a25,25,0,1,0-1.13,33.92Z"/><path class="cls-2" d="M340.33,90c-10.53,0-20.88-3.17-31.66-9.69a4.75,4.75,0,1,1,4.92-8.12c9.25,5.6,18,8.32,26.74,8.32s17.57-2.7,26.74-8.25A4.75,4.75,0,1,1,372,80.39C361.28,86.85,350.93,90,340.33,90Z"/><path class="cls-3" d="M340.3,29.31a4.71,4.71,0,0,1-2.34-.62l-13-7.43a4.75,4.75,0,0,1,4.7-8.25l13,7.43a4.74,4.74,0,0,1-2.35,8.87Z"/><path class="cls-4" d="M340.35,54.88a4.75,4.75,0,0,1-4.75-4.75c0-9.76,18.07-17.86,25.84-20.89a4.74,4.74,0,1,1,3.45,8.84c-9.46,3.7-19,9.58-19.8,12.16A4.74,4.74,0,0,1,340.35,54.88Z"/><path class="cls-3" d="M340.31,54.88a4.75,4.75,0,0,1-4.75-4.64c-.76-2.58-10.33-8.47-19.8-12.16a4.74,4.74,0,0,1,3.45-8.84c7.77,3,25.84,11.13,25.84,20.89A4.74,4.74,0,0,1,340.31,54.88Z"/><path class="cls-5" d="M340.35,29.31A4.75,4.75,0,0,1,338,20.44L351.05,13a4.74,4.74,0,0,1,4.69,8.25l-13,7.43A4.75,4.75,0,0,1,340.35,29.31Z"/><path class="cls-6" d="M375.49,52a4.74,4.74,0,0,0-5.82-3.34c-.74.2-14.18,3.91-24.62,11.13v-55a4.75,4.75,0,1,0-9.49,0v55a82.39,82.39,0,0,0-17.69-8.86c-3.84-1.41-6.56-2.17-6.88-2.25a4.75,4.75,0,0,0-2.49,9.16c3.81,1,11.89,4.51,19.19,8.14a34.19,34.19,0,0,1,12.64,11.27,40.41,40.41,0,0,1,12.14-11,91.89,91.89,0,0,1,19.68-8.44A4.74,4.74,0,0,0,375.49,52Z"/></g></g></svg>