<?xml version="1.0" encoding="utf-8"?>
<!-- Generator: Adobe Illustrator 24.0.3, SVG Export Plug-In . SVG Version: 6.00 Build 0)  -->
<svg version="1.1" id="Layer_1" xmlns="http://www.w3.org/2000/svg" xmlns:xlink="http://www.w3.org/1999/xlink" x="0px" y="0px"
	 viewBox="0 0 290 47" style="enable-background:new 0 0 290 47;" xml:space="preserve">
<style type="text/css">
	.st0{fill:#FFFFFF;}
</style>
<path class="st0" d="M24.0439091,5.7774224C13.2643385,5.7774224,5,13.6824398,5,23.5637131
	s8.2643385,17.7862892,19.0439091,17.7862892s19.0439091-7.9050179,19.0439091-17.7862892
	C43.0878181,13.8620996,34.8234825,5.7774224,24.0439091,5.7774224z M15.4202547,38.6551132
	c-1.6169357-0.7186356-3.0542116-1.6169357-4.3118286-2.8745537c-3.0542107-3.0542107-5.210125-7.3660393-5.210125-12.2168465
	s2.1559143-8.982976,5.210125-11.8575287c1.257617-1.257616,2.6948929-2.1559134,4.3118286-3.0542107
	c0.3593187-0.1796608,0.5389786-0.3593187,0.8982973-0.3593187c-0.3593187,0.1796598-0.5389786,0.3593187-0.8982973,0.5389786
	c-1.6169357,1.0779581-3.0542116,2.3355742-4.3118286,3.7728481c-2.3355742,2.8745537-3.9525089,6.4677439-4.1321688,10.9592314
	c0,4.4914875,1.6169348,8.2643375,4.1321688,11.1388893c1.257617,1.4372749,2.6948929,2.6948929,4.3118286,3.77285
	c0.3593187,0.1796608,0.5389786,0.3593216,0.8982973,0.5389786C15.9592333,39.014431,15.5999146,38.8347702,15.4202547,38.6551132z
	 M18.4744682,30.3907757c-1.257618-0.7186375-2.3355751-1.7965946-3.0542126-3.2338696
	c-0.5389786-1.0779572-0.8982973-2.3355713-0.8982973-3.5931892s0.3593187-2.515234,0.8982973-3.4135303
	c0.7186375-1.4372749,1.7965946-2.5152321,3.0542126-3.2338696c0.5389767-0.3593197,1.0779572-0.5389786,1.6169338-0.7186375
	c-0.5389767,0.3593178-1.0779572,0.7186375-1.6169338,1.257618c-1.6169357,1.4372749-2.515233,3.4135303-2.515233,6.2880821
	s0.8982973,4.8508091,2.515233,6.2880821c0.5389767,0.3593216,0.8982964,0.8982983,1.6169338,1.257618
	C19.3727646,30.9297523,18.8337841,30.7500935,18.4744682,30.3907757z M16.8575287,23.5637131
	c0-4.1321678,3.4135303-7.9050179,7.1863804-8.0846777c3.7728519,0.1796598,7.1863823,3.9525099,7.1863823,8.0846777
	s-3.4135303,7.9050179-7.1863823,8.0846767C20.0914021,31.4687328,16.8575287,27.8755436,16.8575287,23.5637131z
	 M29.6133556,30.3907757c-0.5389767,0.3593216-1.0779572,0.5389767-1.6169357,0.7186375
	c0.5389786-0.3593197,1.0779591-0.7186375,1.6169357-1.257618c1.6169357-1.4372749,2.515234-3.4135303,2.515234-6.2880821
	s-0.8982983-4.6711483-2.515234-6.288084c-0.5389767-0.5389786-1.0779572-0.8982964-1.6169357-1.257616
	c0.5389786,0.1796608,1.0779591,0.3593197,1.6169357,0.7186375c1.257618,0.7186394,2.3355732,1.7965965,3.0542126,3.2338715
	c0.5389786,1.0779591,0.8983002,2.1559162,0.8983002,3.4135303c0,1.257618-0.3593216,2.5152321-0.8983002,3.5931911
	C31.9489326,28.5941811,30.8709736,29.6721382,29.6133556,30.3907757z M36.9793968,35.7805595
	c-1.257618,1.257618-2.6948929,2.1559181-4.3118286,2.8745537c-0.3593178,0.1796608-0.5389748,0.1796608-0.8982964,0.3593216
	c0.3593216-0.1796608,0.5389786-0.3593216,0.8982964-0.5389786c1.6169357-1.0779572,3.0542145-2.3355713,4.3118286-3.77285
	c2.5152321-2.8745518,4.1321678-6.6474018,4.1321678-11.1388874s-1.6169357-8.0846767-4.1321678-10.9592295
	c-1.257618-1.4372768-2.6948929-2.6948929-4.3118286-3.772851c-0.3593178-0.1796598-0.5389748-0.3593187-0.8982964-0.5389786
	c0.3593216,0.1796598,0.5389786,0.3593187,0.8982964,0.3593187c1.6169357,0.7186375,3.0542145,1.7965946,4.3118286,3.0542116
	c3.0542145,2.8745527,5.0304642,7.0067215,5.210125,11.8575268C42.1895218,28.4145203,40.0336113,32.9060097,36.9793968,35.7805595z
	 M168.4901581,20.1501827c0-0.5389767,0-3.9525089-5.0304718-3.9525089h-9.5219574v14.1931019h1.9762573v-6.1084213h6.108429
	l4.1321716,6.1084213h2.3355713l-4.4914856-6.2880821C168.1308441,23.3840561,168.4901581,21.048481,168.4901581,20.1501827z
	 M155.9140015,22.4857578v-4.6711464h6.8270569h0.5389862c2.8745575,0,3.0542145,1.9762535,3.0542145,2.3355713
	c0,0.3593197,0,2.3355713-3.5932007,2.3355713C162.7410583,22.485754,155.9140015,22.485754,155.9140015,22.4857578z
	 M171.5443878,16.1976738h1.9762421v14.1931019h-1.9762421V16.1976738L171.5443878,16.1976738z M133.8158875,16.1976738h1.7965851
	v9.7016144c0,1.257618,0,2.3355732-1.0779572,3.0542126c-0.5389709,0.5389786-1.7965851,1.6169357-5.9287567,1.6169357
	c-4.1321793,0-5.2101364-1.0779572-5.928772-1.6169357c-1.0779572-0.8982964-1.0779572-1.7965946-1.0779572-3.0542126v-9.7016125
	h1.7965927v9.7016125c0,0.7186375,0.179657,1.6169357,0.5389862,1.9762554
	c0.5389862,0.5389767,1.6169357,1.257618,4.4914932,1.257618c2.8745422,0,3.9524994-0.7186375,4.4914856-1.257618
	c0.359314-0.5389767,0.5389862-1.257618,0.5389862-1.9762554v-9.7016144H133.8158875z M178.3714294,17.9942703v4.1321678h7.1863861
	v1.7965946h-7.1863861v4.4914875h10.7795715v1.7965946h-12.7558136v-14.1931h12.7558136v1.7965965h-10.7795715V17.9942703z
	 M65.5452652,16.1976738h2.5152359v14.1931019h-1.9762497V19.2518883l-6.2880859,11.3185482l-6.108429-11.3185482v11.1388912
	h-1.9762497v-14.1931h2.6948929l5.5694427,10.5999088L65.5452652,16.1976738z M142.9785156,16.1976738l-6.6473999,14.1931019
	h2.1559143l1.7965851-3.5931892h7.7253723l1.7966003,3.5931892h2.155899l-6.8270569-14.1931
	C145.1344299,16.1976757,142.9785156,16.1976757,142.9785156,16.1976738z M140.8226013,25.0009899l3.0542145-6.8270588
	l3.0541992,6.8270588H140.8226013z M119.9820938,23.3840561c0-6.2880821-5.928772-7.3660412-8.2643356-7.3660412
	c-4.4914932,0-8.4439926,2.3355732-8.4439926,7.3660412c0,1.6169338,1.2576065,7.5457001,8.4439926,7.5457001
	c0.8982925,0,1.9762497-0.1796589,2.6948929-0.3593197l2.8745499,2.3355732l1.0779495-1.4372768l-2.1559067-2.1559143
	C117.1075439,28.9534969,119.9820938,27.1569023,119.9820938,23.3840561z M114.9516296,28.4145203
	c-2.8745499-1.7965946-4.8507996-0.8982964-5.2101288-0.1796589c1.6169434-0.3593216,2.6948929,0.5389767,3.0542068,0.8982964
	c-0.179657,0-0.5389786,0.1796608-1.2576065,0.1796608c-2.3355789,0-6.108429-1.9762554-6.108429-6.1084232
	c0-2.1559143,1.6169357-5.7491055,6.108429-5.7491055c2.3355789,0,6.1084213,1.7965946,6.1084213,5.9287624
	C117.8261795,25.7196274,116.927887,27.1569023,114.9516296,28.4145203z M76.6841507,16.1976738l-6.6474075,14.1931019h1.9762573
	l1.7966003-3.5931892h7.7253571l1.7965927,3.5931892h2.1559143l-6.8270569-14.1931
	C78.660408,16.1976757,76.6841507,16.1976757,76.6841507,16.1976738z M74.5282364,25.0009899l3.0542145-6.8270588
	l3.0542145,6.8270588H74.5282364z M100.5788727,26.258606l1.0779495,1.257618
	c-0.179657,0.1796589-2.5152359,2.8745518-7.7253571,2.8745518c-3.5931854,0-8.9829712-1.6169338-8.9829712-7.1863804
	c0-1.9762554,1.2576141-4.3118267,3.5931854-5.7491055c3.0542145-1.9762545,8.4440002-2.3355732,12.5761719,0.3593216
	l-0.8983002,1.437273c-4.6711426-3.4135294-12.7558212-1.437273-12.7558212,3.9525108
	C87.2840652,28.4145203,95.0094223,31.1094131,100.5788727,26.258606z"/>
<title>company-logo-full</title>
<path class="st0" d="M218.0009918,21.6399994c0.4539032-0.0141811,0.8656769-0.26964,1.0800018-0.6700001
	c0.1221008-0.2836246,0.1768646-0.591671,0.1600037-0.8999996c0.0513306-0.690876-0.2734985-1.3558254-0.8500061-1.7399998
	c-0.7442474-0.4018822-1.5855865-0.5888481-2.4299927-0.5400009c-0.976059-0.0967636-1.9403381,0.2741127-2.6000061,1
	c-0.326416,0.4840679-0.5164032,1.0471268-0.5500031,1.6299992h-2.1900024
	c-0.1161652-1.4075756,0.5185699-2.7720833,1.6699982-3.5900002c1.1190491-0.6817837,2.4099426-1.0287991,3.7200012-1
	c1.3948975-0.0656729,2.780365,0.2599125,4,0.9399986c1.0120697,0.6084156,1.5988312,1.7317715,1.5200043,2.9100018v8
	c-0.0125275,0.2074757,0.0398865,0.413702,0.1499939,0.5900002c0.1000061,0.1499996,0.3099976,0.2199993,0.6300049,0.2199993
	h0.3500061l0.4199982-0.0599995v1.7299995c-0.2719879,0.0822487-0.5493164,0.145731-0.8300018,0.1900005
	c-0.2596588,0.018837-0.52034,0.018837-0.7799988,0c-0.6973724,0.0566273-1.3707733-0.2685966-1.7599945-0.8500004
	c-0.2172699-0.3993435-0.3532104-0.8377934-0.3999939-1.289999c-0.5541534,0.6859398-1.2545471,1.2394199-2.0500031,1.6200008
	c-0.9136658,0.4635239-1.9255219,0.7001972-2.9499969,0.6900005c-1.1699219,0.0452366-2.3099976-0.3755493-3.1699982-1.1700001
	c-0.8084412-0.7604065-1.252533-1.830616-1.2200012-2.9400005c-0.0662384-1.128727,0.3735962-2.2283249,1.1999969-3
	c0.8987885-0.7490005,2.0046692-1.2060051,3.1699982-1.3099995L218.0009918,21.6399994z M213.0809937,28
	c0.4984283,0.3904095,1.1170654,0.5954418,1.75,0.5799999c0.8302307-0.0009079,1.6487274-0.1961136,2.3899994-0.5699997
	c1.2531891-0.5087929,2.0529938-1.7485104,2-3.1000004V23c-0.3388977,0.2127514-0.7105408,0.3681698-1.1000061,0.4599991
	c-0.4331665,0.1183529-0.8743134,0.205246-1.3200073,0.2600002l-1.4199982,0.1800003
	c-0.6634369,0.0599728-1.3105316,0.2395344-1.9100037,0.5300007c-0.7073059,0.3859463-1.1280823,1.1456814-1.0800018,1.9500008
	C212.3417816,27.0004215,212.5995483,27.6056042,213.0809937,28z"/>
<path class="st0" d="M227.6809998,16.1499996v9.2399998c-0.0213928,0.5973721,0.0913696,1.1919422,0.3300018,1.7399998
	c0.427597,0.8438492,1.3282776,1.3398151,2.2700043,1.25c1.451355,0.0880585,2.7806549-0.8104439,3.2400055-2.1900005
	c0.3464203-1.0333214,0.5022888-2.1209736,0.4600067-3.2099991v-6.8299999h2.3399963v13.9099998h-2.2100067v-2
	c-0.2835693,0.5117283-0.6599884,0.9661484-1.1100006,1.3400002c-0.8983307,0.71455-2.0229797,1.083519-3.1700134,1.0400009
	c-1.9400024,0-3.2700043-0.6599998-4-2c-0.4256897-0.8839779-0.625-1.8598976-0.5800018-2.8400002v-9.4500008H227.6809998z"/>
<path class="st0" d="M240.2109985,16.1499996h2.2200012v2.3999996c0.3255005-0.6553421,0.7814941-1.2372475,1.3399963-1.7099991
	c0.6525116-0.6438675,1.5332947-1.0033722,2.4499969-1.000001h0.2299957l0.5299988,0.0500002v2.4699993l-0.3899994-0.0499992
	h-0.3800049c-1.0293427-0.0618763-2.029541,0.3551826-2.7100067,1.1299992
	c-0.6260834,0.7279606-0.9640198,1.6599388-0.9499969,2.6199989v8h-2.3399963L240.2109985,16.1499996z"/>
<path class="st0" d="M259.0909729,17.5400009c1.3175049,1.42556,1.9839172,3.334198,1.8399963,5.2700005
	c0.0791626,1.9770947-0.4896851,3.9259281-1.6199951,5.5499992c-1.203125,1.5113983-3.0728455,2.3340836-4.9999847,2.2000008
	c-1.7259674,0.073204-3.3919983-0.6402855-4.5299988-1.9400005c-1.1723633-1.4754524-1.7661591-3.3279419-1.6699982-5.210001
	c-0.1157074-2.0093212,0.4947357-3.9932842,1.7200012-5.5900002c1.1821747-1.3818245,2.9330292-2.144825,4.75-2.0699997
	C256.2646484,15.7115068,257.8919678,16.3573837,259.0909729,17.5400009z M257.6409912,26.7900009
	c0.5789185-1.2246208,0.8696899-2.5655708,0.8500061-3.9200001c0.0417175-1.0872021-0.1705627-2.1691628-0.6199951-3.1599998
	c-0.6239319-1.2650623-1.9533386-2.0247269-3.3600006-1.9200001c-1.2557068-0.0863304-2.4522552,0.544857-3.0899963,1.6299992
	c-0.6829071,1.2026119-1.0283966,2.5673122-1,3.9500008c-0.0358276,1.3046074,0.3118591,2.5910606,1,3.7000008
	c0.6862793,0.9989815,1.8512421,1.5586185,3.0599976,1.4699993
	C255.7949524,28.6666679,257.051178,27.9709606,257.6409912,26.7900009z"/>
<path class="st0" d="M263.8309937,16.1499996h2.2200012v2.3999996c0.3255005-0.6553421,0.7814941-1.2372475,1.3399963-1.7099991
	c0.6549683-0.6463223,1.539856-1.0060263,2.4599915-1.000001h0.2200012l0.5299988,0.0500002v2.4699993l-0.3800049-0.0499992
	h-0.3899841c-1.0293579-0.0618763-2.029541,0.3551826-2.710022,1.1299992c-0.6441956,0.7206402-1.0002136,1.6534061-1,2.6199989v8
	h-2.289978V16.1499996z"/>
<path class="st0" d="M280.1209717,21.6399994c0.4539185-0.0141811,0.8656921-0.26964,1.0800171-0.6700001
	c0.1221008-0.2836246,0.1768494-0.591671,0.1600037-0.8999996c0.0556641-0.6917057-0.2701721-1.3587456-0.8500061-1.7399998
	c-0.7442627-0.4018822-1.5856018-0.5888481-2.4299927-0.5400009c-0.9760742-0.0967636-1.9403381,0.2741127-2.6000061,1
	c-0.326416,0.4840679-0.5164185,1.0471268-0.5500183,1.6299992h-2.1900024
	c-0.1161499-1.4075756,0.5185852-2.7720833,1.6700134-3.5900002c1.1190491-0.6817837,2.4099426-1.0287991,3.7200012-1
	c1.3948975-0.0656729,2.780365,0.2599125,4,0.9399986c1.0120544,0.6084156,1.5988159,1.7317715,1.519989,2.9100018v8
	c-0.0125122,0.2074757,0.0398865,0.413702,0.1499939,0.5900002c0.1000061,0.1499996,0.3099976,0.2199993,0.6300049,0.2199993
	h0.3500061l0.4200134-0.0599995v1.7299995c-0.2720032,0.0822487-0.5493164,0.145731-0.8300171,0.1900005
	c-0.2596436,0.018837-0.5203247,0.018837-0.7799988,0c-0.6973572,0.0566273-1.3707581-0.2685966-1.7599792-0.8500004
	c-0.2172852-0.3993435-0.3532104-0.8377934-0.3999939-1.289999c-0.5541687,0.6859398-1.2545471,1.2394199-2.0500183,1.6200008
	c-0.9136658,0.4635239-1.9255066,0.7001972-2.9499817,0.6900005c-1.1699219,0.0452366-2.3099976-0.3755493-3.1700134-1.1700001
	c-0.8052063-0.7626286-1.2486877-1.8313274-1.2200012-2.9400005c-0.0662231-1.128727,0.3735962-2.2283249,1.2000122-3
	c0.8987732-0.7490005,2.0046692-1.2060051,3.1699829-1.3099995L280.1209717,21.6399994z M275.2009888,28
	c0.4984131,0.3904095,1.1170654,0.5954418,1.75,0.5799999c0.8302307-0.0009079,1.6487122-0.1961136,2.3899841-0.5699997
	c1.2532043-0.5087929,2.053009-1.7485104,2-3.1000004V23c-0.3388977,0.2127514-0.7105408,0.3681698-1.1000061,0.4599991
	c-0.4331665,0.1183529-0.8742981,0.205246-1.3200073,0.2600002l-1.4199829,0.1800003
	c-0.6634521,0.0599728-1.3105469,0.2395344-1.9100037,0.5300007c-0.7073059,0.3859463-1.1280823,1.1456814-1.0800171,1.9500008
	C274.4668884,26.9995747,274.7236938,27.6024971,275.2009888,28z"/>
<rect x="198.8309937" y="15" class="st0" width="1" height="16"/>
</svg>
