<svg xmlns="http://www.w3.org/2000/svg" xmlns:xlink="http://www.w3.org/1999/xlink" viewBox="0 0 256 256"><defs><style>.cls-1{fill:url(#linear-gradient);}.cls-2{fill:#ff7926;}.cls-3{fill:url(#linear-gradient-2);}.cls-4{fill:url(#linear-gradient-3);}.cls-5{fill:url(#linear-gradient-4);}.cls-6{opacity:0.3;}.cls-7{fill:url(#linear-gradient-5);}.cls-8{fill:url(#linear-gradient-6);}.cls-9{fill:url(#linear-gradient-7);}.cls-10{fill:url(#linear-gradient-8);}.cls-11{fill:url(#linear-gradient-9);}.cls-12{fill:url(#linear-gradient-10);}</style><linearGradient id="linear-gradient" x1="33.84" y1="227.3" x2="222.16" y2="227.3" gradientUnits="userSpaceOnUse"><stop offset="0.32" stop-color="#ff7926"/><stop offset="0.47" stop-color="#ff8328"/><stop offset="0.71" stop-color="#ff9e2d"/><stop offset="1" stop-color="#ffc734"/></linearGradient><linearGradient id="linear-gradient-2" x1="127.79" y1="137.18" x2="202.48" y2="87.57" xlink:href="#linear-gradient"/><linearGradient id="linear-gradient-3" x1="122.75" y1="74.49" x2="176.85" y2="43.12" xlink:href="#linear-gradient"/><linearGradient id="linear-gradient-4" x1="50.65" y1="195.43" x2="193.93" y2="61.46" xlink:href="#linear-gradient"/><linearGradient id="linear-gradient-5" x1="51.47" y1="112.93" x2="114.77" y2="112.93" gradientUnits="userSpaceOnUse"><stop offset="0.64" stop-color="#ff7926" stop-opacity="0"/><stop offset="0.69" stop-color="#f57525" stop-opacity="0.09"/><stop offset="0.79" stop-color="#dc6a24" stop-opacity="0.34"/><stop offset="0.92" stop-color="#b45921" stop-opacity="0.74"/><stop offset="1" stop-color="#994e1f"/></linearGradient><linearGradient id="linear-gradient-6" x1="141.1" y1="113.43" x2="204.52" y2="113.43" gradientUnits="userSpaceOnUse"><stop offset="0" stop-color="#994e1f" stop-opacity="0.6"/><stop offset="0.03" stop-color="#a55320" stop-opacity="0.53"/><stop offset="0.31" stop-color="#ff7926" stop-opacity="0"/></linearGradient><linearGradient id="linear-gradient-7" x1="144.81" y1="58.19" x2="178.2" y2="58.19" gradientUnits="userSpaceOnUse"><stop offset="0" stop-color="#994e1f" stop-opacity="0.6"/><stop offset="0.04" stop-color="#ac5620" stop-opacity="0.49"/><stop offset="0.18" stop-color="#e86f24" stop-opacity="0.14"/><stop offset="0.24" stop-color="#ff7926" stop-opacity="0"/></linearGradient><linearGradient id="linear-gradient-8" x1="82.28" y1="58.16" x2="115.56" y2="58.16" gradientUnits="userSpaceOnUse"><stop offset="0.65" stop-color="#ff7926" stop-opacity="0"/><stop offset="0.74" stop-color="#dc6a24" stop-opacity="0.34"/><stop offset="0.82" stop-color="#bf5e22" stop-opacity="0.63"/><stop offset="0.89" stop-color="#aa5520" stop-opacity="0.83"/><stop offset="0.96" stop-color="#9e501f" stop-opacity="0.96"/><stop offset="1" stop-color="#994e1f"/></linearGradient><linearGradient id="linear-gradient-9" x1="128" y1="231.55" x2="128" y2="-1.89" gradientUnits="userSpaceOnUse"><stop offset="0" stop-color="#994e1f" stop-opacity="0.8"/><stop offset="0.06" stop-color="#9d501f" stop-opacity="0.77"/><stop offset="0.12" stop-color="#a95520" stop-opacity="0.68"/><stop offset="0.19" stop-color="#bc5d21" stop-opacity="0.53"/><stop offset="0.26" stop-color="#d76823" stop-opacity="0.32"/><stop offset="0.33" stop-color="#f97626" stop-opacity="0.05"/><stop offset="0.34" stop-color="#ff7926" stop-opacity="0"/></linearGradient><linearGradient id="linear-gradient-10" x1="128" y1="253.28" x2="128" y2="142.33" gradientUnits="userSpaceOnUse"><stop offset="0" stop-color="#994e1f" stop-opacity="0.8"/><stop offset="0.26" stop-color="#e26d24" stop-opacity="0.23"/><stop offset="0.37" stop-color="#ff7926" stop-opacity="0"/></linearGradient></defs><g id="artwork"><path class="cls-1" d="M128,253c-29.21,0-57.93-8.81-87.81-26.93a13.18,13.18,0,0,1,13.64-22.56c25.65,15.56,49.91,23.12,74.17,23.12,24.47,0,48.73-7.49,74.18-22.9a13.18,13.18,0,0,1,13.62,22.56C186.13,244.26,157.41,253,128,253Z"/><path class="cls-2" d="M127.92,84.42a13.11,13.11,0,0,1-6.5-1.73L85.24,62.06a13.18,13.18,0,0,1,13-22.91l36.18,20.63a13.19,13.19,0,0,1-6.53,24.64Z"/><path class="cls-3" d="M128.06,155.45a13.19,13.19,0,0,1-13.17-13.19c0-27.11,50.13-49.62,71.68-58a13.18,13.18,0,0,1,9.57,24.56c-26.26,10.28-52.81,26.62-54.92,33.77A13.18,13.18,0,0,1,128.06,155.45Z"/><path class="cls-2" d="M127.93,155.45a13.18,13.18,0,0,1-13.16-12.9c-2.11-7.17-28.66-23.51-54.91-33.77a13.18,13.18,0,0,1,9.57-24.56c21.55,8.42,71.67,30.93,71.67,58A13.18,13.18,0,0,1,127.93,155.45Z"/><path class="cls-4" d="M128.07,84.42a13.18,13.18,0,0,1-6.52-24.64l36.18-20.63a13.18,13.18,0,0,1,13,22.91L134.57,82.69A13.09,13.09,0,0,1,128.07,84.42Z"/><path class="cls-5" d="M225.54,147.32A13.19,13.19,0,0,0,209.39,138c-2,.56-39.32,10.88-68.29,30.94V16.18a13.17,13.17,0,1,0-26.33,0V168.91c-16.34-11.29-35.28-19.5-49.07-24.6-10.64-3.93-18.2-6-19.09-6.27a13.18,13.18,0,0,0-6.9,25.45c10.56,2.88,33,12.54,53.22,22.61C115.65,197.41,128,217.43,128,217.43A112.45,112.45,0,0,1,161.67,187c19.84-11.75,43.79-20.5,54.6-23.46A13.18,13.18,0,0,0,225.54,147.32Z"/><g class="cls-6"><path class="cls-7" d="M59.86,108.78c26.24,10.26,52.79,26.59,54.91,33.76V107.22c-15.52-10.55-34.22-18.66-45.34-23a13.18,13.18,0,0,0-9.57,24.56Z"/><path class="cls-8" d="M141.1,143.55c0-.34.11-.66.12-1,2.11-7.15,28.66-23.49,54.92-33.77a13.18,13.18,0,0,0-9.57-24.56c-11.15,4.36-29.93,12.5-45.47,23.08Z"/><path class="cls-9" d="M141.1,79l29.65-16.91a13.18,13.18,0,0,0-13-22.91L141.1,48.63Z"/><path class="cls-10" d="M85.24,62.06,114.77,78.9V48.56l-16.5-9.41a13.18,13.18,0,0,0-13,22.91Z"/><path class="cls-11" d="M225.54,147.32A13.19,13.19,0,0,0,209.39,138c-2,.56-39.32,10.88-68.29,30.94V16.18a13.17,13.17,0,1,0-26.33,0V168.91c-16.34-11.29-35.28-19.5-49.07-24.6-10.64-3.93-18.2-6-19.09-6.27a13.18,13.18,0,0,0-6.9,25.45c10.56,2.88,33,12.54,53.22,22.61C115.65,197.41,128,217.43,128,217.43A112.45,112.45,0,0,1,161.67,187c19.84-11.75,43.79-20.5,54.6-23.46A13.18,13.18,0,0,0,225.54,147.32Z"/><path class="cls-12" d="M128,253c-29.21,0-57.93-8.81-87.81-26.93a13.18,13.18,0,0,1,13.64-22.56c25.65,15.56,49.91,23.12,74.17,23.12,24.47,0,48.73-7.49,74.18-22.9a13.18,13.18,0,0,1,13.62,22.56C186.13,244.26,157.41,253,128,253Z"/></g></g></svg>