<?xml version="1.0" standalone="no"?>
<!DOCTYPE svg PUBLIC "-//W3C//DTD SVG 20010904//EN"
 "http://www.w3.org/TR/2001/REC-SVG-20010904/DTD/svg10.dtd">
<svg version="1.0" xmlns="http://www.w3.org/2000/svg"
 width="260.000000pt" height="260.000000pt" viewBox="0 0 260.000000 260.000000"
 preserveAspectRatio="xMidYMid meet">
<metadata>
Created by potrace 1.11, written by Peter Selinger 2001-2013
</metadata>
<g transform="translate(0.000000,260.000000) scale(0.100000,-0.100000)"
fill="#000000" stroke="none">
<path d="M1244 2590 c-38 -15 -91 -76 -100 -116 -6 -22 -10 -103 -9 -181 0
-79 -1 -143 -3 -143 -2 0 -29 14 -60 32 -120 66 -121 67 -183 55 -40 -8 -82
-48 -96 -92 -13 -41 2 -107 30 -133 12 -12 88 -59 167 -105 l145 -83 0 -141 0
-141 -80 45 c-69 38 -146 76 -260 128 -121 56 -182 63 -231 26 -82 -60 -72
-189 16 -233 19 -10 105 -51 190 -92 148 -71 271 -145 334 -201 l30 -25 1
-144 c0 -80 -2 -143 -5 -141 -3 1 -34 20 -70 42 -165 99 -551 253 -637 253
-53 0 -101 -29 -123 -75 -37 -76 -6 -157 70 -187 248 -97 329 -131 485 -208
191 -94 275 -151 380 -258 l65 -66 53 50 c70 68 149 132 222 181 137 92 407
219 577 271 120 37 148 61 162 134 14 74 -41 147 -116 155 -107 11 -506 -147
-713 -283 l-23 -15 1 143 0 143 30 28 c57 53 183 129 337 203 85 41 171 83
190 92 66 33 92 126 53 192 -22 37 -83 69 -126 65 -56 -6 -318 -126 -439 -202
-21 -13 -39 -23 -42 -23 -5 0 -5 251 0 272 3 9 31 31 62 49 31 18 71 40 87 49
17 9 55 31 86 49 94 53 121 96 107 171 -11 60 -53 101 -110 110 -39 6 -53 2
-135 -42 -50 -26 -94 -48 -96 -48 -3 0 -5 69 -4 153 0 83 -4 163 -8 177 -27
86 -134 141 -211 110z"/>
<path d="M402 520 c-62 -28 -90 -93 -71 -162 12 -46 35 -68 119 -116 309 -173
566 -245 870 -241 287 3 572 87 842 246 66 39 84 55 99 88 42 96 -16 193 -119
197 -31 1 -59 -10 -129 -50 -197 -113 -369 -183 -528 -217 -77 -16 -260 -22
-315 -11 -13 3 -42 8 -63 11 -106 16 -326 108 -499 207 -111 64 -149 73 -206
48z"/>
</g>
</svg>
